<?xml version="1.0" standalone="no"?>
<!DOCTYPE svg PUBLIC "-//W3C//DTD SVG 20010904//EN"
 "http://www.w3.org/TR/2001/REC-SVG-20010904/DTD/svg10.dtd">
<svg version="1.0" xmlns="http://www.w3.org/2000/svg"
 width="700.000000pt" height="700.000000pt" viewBox="0 0 700.000000 700.000000"
 preserveAspectRatio="xMidYMid meet">
<metadata>
Created by potrace 1.11, written by Peter Selinger 2001-2013
</metadata>
<g transform="translate(0.000000,700.000000) scale(0.100000,-0.100000)"
fill="#000000" stroke="none">
<path d="M1948 6995 c-2 -2 -22 -5 -45 -9 -129 -17 -284 -78 -406 -159 -252
-168 -419 -441 -452 -742 -3 -29 -8 -5550 -5 -6033 l0 -53 1353 4 c743 2 1370
7 1392 11 22 4 94 16 160 28 197 33 448 117 643 212 366 180 728 498 957 841
190 285 335 647 381 953 3 20 7 48 9 62 6 31 14 108 20 175 6 67 6 3748 0
3801 -48 429 -350 772 -780 885 -62 16 -122 22 -262 26 l-183 6 0 -460 0 -459
-172 0 c-217 1 -300 -10 -478 -65 -164 -50 -406 -193 -533 -314 l-48 -46 -52
50 c-162 156 -393 280 -632 340 -116 29 -181 35 -367 36 l-178 0 0 458 0 458
-160 -2 c-88 -1 -161 -3 -162 -4z m-88 -745 l0 -300 -52 -26 c-60 -30 -201
-122 -238 -155 -14 -12 -47 -43 -73 -68 l-48 -46 3 220 c4 192 7 228 26 285
39 118 118 228 219 306 43 33 137 84 156 84 4 0 7 -135 7 -300z m3363 267
c118 -65 205 -155 263 -272 51 -105 64 -180 64 -399 l0 -188 -64 60 c-81 75
-169 138 -268 192 l-78 42 0 299 c0 233 3 299 13 299 6 0 38 -15 70 -33z
m-2508 -867 c144 -36 309 -117 406 -199 104 -89 167 -165 294 -359 44 -67 82
-122 85 -122 3 0 46 62 95 137 133 202 218 299 339 384 123 88 290 156 431
177 80 11 295 7 355 -7 287 -67 507 -214 654 -436 121 -182 168 -335 170 -550
2 -202 -21 -311 -100 -472 -130 -266 -368 -460 -662 -540 -83 -23 -118 -27
-242 -27 -163 -1 -215 6 -331 44 -95 32 -169 68 -253 125 -138 92 -219 182
-361 397 -49 76 -92 138 -95 138 -3 0 -45 -62 -95 -138 -49 -75 -92 -139 -95
-142 -3 -3 -21 -25 -41 -50 -137 -170 -343 -302 -544 -349 -27 -6 -61 -14 -75
-17 -14 -4 -86 -8 -160 -9 -114 -3 -151 0 -237 20 -482 112 -815 537 -801
1025 8 325 155 604 421 803 47 35 105 68 227 127 29 14 135 42 205 55 107 19
302 12 410 -15z m-1199 -2062 c177 -165 441 -297 689 -342 l60 -11 0 -950 c0
-919 -2 -987 -24 -1085 -83 -365 -393 -674 -763 -764 l-28 -6 0 1605 c0 1282
3 1605 13 1599 6 -5 30 -25 53 -46z m4034 -620 c-1 -370 -5 -693 -10 -718 -4
-25 -10 -65 -13 -90 -39 -314 -185 -660 -400 -945 -77 -102 -278 -303 -384
-383 -292 -221 -633 -361 -993 -406 -89 -11 -272 -14 -809 -15 l-694 -1 49 52
c207 219 354 549 378 843 2 28 4 472 5 988 1 741 4 938 14 941 6 2 64 15 127
31 63 15 126 32 140 38 14 5 30 11 35 12 24 6 156 72 222 112 39 24 73 43 75
43 2 0 4 -56 3 -125 l-1 -125 205 2 206 3 0 123 c0 67 1 122 4 122 2 0 31 -17
65 -38 140 -87 313 -155 486 -189 124 -25 414 -24 535 1 269 56 518 182 708
360 21 20 40 36 43 36 2 0 4 -303 4 -672z"/>
<path d="M2325 5250 c-154 -43 -272 -125 -357 -248 -31 -44 -76 -137 -83 -169
-2 -10 -8 -38 -14 -63 -26 -110 -6 -265 49 -378 198 -406 734 -473 1028 -128
162 191 185 489 54 705 -75 124 -199 222 -342 272 -86 29 -248 34 -335 9z
m206 -400 c21 -6 55 -25 75 -42 114 -100 88 -276 -50 -339 -80 -36 -166 -19
-227 46 -143 151 1 389 202 335z"/>
<path d="M4435 5264 c-179 -43 -258 -86 -363 -198 -316 -338 -144 -891 313
-1010 58 -15 230 -17 280 -3 213 60 377 212 447 416 32 94 32 266 1 366 -79
249 -304 422 -563 431 -52 1 -104 1 -115 -2z m168 -423 c58 -27 84 -52 107
-103 62 -136 -40 -289 -191 -288 -47 1 -115 33 -147 71 -33 39 -42 61 -49 116
-18 146 146 266 280 204z"/>
</g>
</svg>
