<?xml version="1.0" encoding="iso-8859-1"?>
<!-- Generator: Adobe Illustrator 19.0.0, SVG Export Plug-In . SVG Version: 6.00 Build 0)  -->
<svg version="1.1" id="Capa_1" xmlns="http://www.w3.org/2000/svg" xmlns:xlink="http://www.w3.org/1999/xlink" x="0px" y="0px"
	 viewBox="0 0 512 512" style="enable-background:new 0 0 512 512;" xml:space="preserve">
<g>
	<g>
		<path d="M331,126.575c-24.813,0-45,20.187-45,45c0,24.813,20.187,45,45,45s45-20.187,45-45
			C376,146.762,355.813,126.575,331,126.575z M331,186.575c-8.271,0-15-6.729-15-15s6.729-15,15-15s15,6.729,15,15
			S339.271,186.575,331,186.575z"/>
	</g>
</g>
<g>
	<g>
		<path d="M361,0h-15v67.651c-4.901-0.704-9.907-1.076-15-1.076c-28.549,0-55.432,11.511-75,31.506
			c-19.568-19.995-46.451-31.506-75-31.506c-5.093,0-10.099,0.372-15,1.076V0h-15c-41.355,0-75,33.645-75,75v437h180
			c99.252,0,180-80.748,180-180V171.614c0-0.013,0-0.026,0-0.039s0-0.026,0-0.038V75C436,33.645,402.355,0,361,0z M106,75
			c0-19.556,12.539-36.239,30-42.43v44.15c-11.242,5.355-21.385,12.651-30,21.451V75z M106,480.491V244.979
			c15.764,16.103,36.652,27.166,60,30.52V407C166,443.219,140.192,473.522,106,480.491z M406,332c0,82.71-67.29,150-150,150h-91.596
			C183.887,462.927,196,436.354,196,407V275.499c16.3-2.34,31.678-8.457,45-17.742v18.818h30v-18.818
			c17.349,12.091,38.186,18.818,60,18.818c29.354,0,55.927-12.112,75-31.595V332z M406,171.594
			c-0.01,41.346-33.651,74.981-75,74.981c-25.177,0-48.544-12.541-62.508-33.547L256,194.236l-12.492,18.792
			c-13.964,21.006-37.332,33.547-62.508,33.547c-41.355,0-75-33.645-75-75c0-41.355,33.645-75,75-75
			c25.177,0,48.544,12.541,62.508,33.547L256,148.914l12.492-18.792c13.964-21.006,37.332-33.547,62.508-33.547
			c41.349,0,74.989,33.635,75,74.981V171.594z M406,98.171c-8.615-8.8-18.758-16.096-30-21.451V32.57
			c17.461,6.191,30,22.874,30,42.43V98.171z"/>
	</g>
</g>
<g>
	<g>
		<path d="M181,126.575c-24.813,0-45,20.187-45,45c0,24.813,20.187,45,45,45s45-20.187,45-45
			C226,146.762,205.813,126.575,181,126.575z M181,186.575c-8.271,0-15-6.729-15-15s6.729-15,15-15s15,6.729,15,15
			S189.271,186.575,181,186.575z"/>
	</g>
</g>
<g>
</g>
<g>
</g>
<g>
</g>
<g>
</g>
<g>
</g>
<g>
</g>
<g>
</g>
<g>
</g>
<g>
</g>
<g>
</g>
<g>
</g>
<g>
</g>
<g>
</g>
<g>
</g>
<g>
</g>
</svg>
